<?xml version="1.0" encoding="UTF-8"?>
<svg width="24px" height="24px" viewBox="0 0 24 24" version="1.1" xmlns="http://www.w3.org/2000/svg" xmlns:xlink="http://www.w3.org/1999/xlink">
    <!-- Generator: sketchtool 52.2 (67145) - http://www.bohemiancoding.com/sketch -->
    <title>435C4273-B997-4D99-958D-563319F6CAD5</title>
    <desc>Created with sketchtool.</desc>
    <g id="Dashboard+Settings" stroke="none" stroke-width="1" fill="none" fill-rule="evenodd" stroke-linecap="round" stroke-linejoin="round">
        <g id="Account" transform="translate(-16.000000, -303.000000)" stroke="#FFFFFF">
            <g id="icon_settings_account" transform="translate(16.000000, 303.000000)">
                <g>
                    <path d="M23.52,12.0001431 C23.52,18.3623506 18.3626368,23.52 12.0001431,23.52 C5.63793558,23.52 0.48,18.3623506 0.48,12.0001431 C0.48,5.63822177 5.63793558,0.48 12.0001431,0.48 C18.3626368,0.48 23.52,5.63822177 23.52,12.0001431 Z" id="Stroke-19"></path>
                    <path d="M4.42648214,20.4767843 C5.63290018,17.4775559 8.5693116,15.36 12.0001014,15.36 C15.439705,15.36 18.3820773,17.4882586 19.5826743,20.4995108" id="Stroke-19"></path>
                    <path d="M15.36,9.11963178 C15.36,10.9761929 13.8561929,12.4792636 12.0003682,12.4792636 C10.1445436,12.4792636 8.64,10.9761929 8.64,9.11963178 C8.64,7.26380712 10.1445436,5.76 12.0003682,5.76 C13.8561929,5.76 15.36,7.26380712 15.36,9.11963178 Z" id="Stroke-25"></path>
                </g>
            </g>
        </g>
    </g>
</svg>