<?xml version="1.0" encoding="UTF-8"?>
<svg width="24px" height="24px" viewBox="0 0 24 24" version="1.1" xmlns="http://www.w3.org/2000/svg" xmlns:xlink="http://www.w3.org/1999/xlink">
    <!-- Generator: sketchtool 52.2 (67145) - http://www.bohemiancoding.com/sketch -->
    <title>F195263E-CF4A-4DBD-ACBA-B35E9B426B5C</title>
    <desc>Created with sketchtool.</desc>
    <g id="Dashboard+Settings" stroke="none" stroke-width="1" fill="none" fill-rule="evenodd" stroke-linecap="round" stroke-linejoin="round">
        <g id="Account" transform="translate(-16.000000, -670.000000)" fill-rule="nonzero" stroke="#FFFFFF">
            <g id="icon_settings_login" transform="translate(16.000000, 670.000000)">
                <path d="M9.03590063,13.3128471 C8.40189354,13.513157 7.73687847,13.6164377 7.05821887,13.6164377 C3.4362146,13.6164377 0.5,10.6802231 0.5,7.05821887 C0.5,3.4362146 3.4362146,0.5 7.05821887,0.5 C10.6802231,0.5 13.6164377,3.4362146 13.6164377,7.05821887 C13.6164377,7.73687847 13.513157,8.40189354 13.3128471,9.03590063 L23.1245734,18.8476269 L23.5522681,23.5522681 L18.8476269,23.1245734 L17.6788536,21.9558001 L17.2235227,19.1063842 L14.1130531,18.6093374 L14.1130531,15.6537834 L11.3768369,15.6537834 L9.03590063,13.3128471 Z M8.57762516,6.5533673 C8.57762516,5.43540055 7.67133404,4.52910943 6.5533673,4.52910943 C5.43540055,4.52910943 4.52910943,5.43540055 4.52910943,6.5533673 C4.52910943,7.67133404 5.43540055,8.57762516 6.5533673,8.57762516 C7.67133404,8.57762516 8.57762516,7.67133404 8.57762516,6.5533673 Z"></path>
            </g>
        </g>
    </g>
</svg>