<?xml version="1.0" encoding="UTF-8"?>
<svg width="24px" height="25px" viewBox="0 0 24 25" version="1.1" xmlns="http://www.w3.org/2000/svg" xmlns:xlink="http://www.w3.org/1999/xlink">
    <!-- Generator: sketchtool 52.2 (67145) - http://www.bohemiancoding.com/sketch -->
    <title>BD78BCC5-2D6F-4CB6-9271-39FA6ED71B91</title>
    <desc>Created with sketchtool.</desc>
    <g id="Dashboard+Settings" stroke="none" stroke-width="1" fill="none" fill-rule="evenodd" stroke-linecap="round" stroke-linejoin="round">
        <g id="Account" transform="translate(-16.000000, -721.000000)" stroke="#FFFFFF">
            <g id="icon-/-mapbox" transform="translate(16.000000, 721.000000)">
                <path d="M12,16 C11.1428571,16 6,11.3846154 6,6.76923077 C6,3.30769231 8.4,1 12,1 C15.6,1 18,3.30769231 18,6.76923077 C18,11.3846154 12.8571429,16 12,16 Z M12,9.5 C13.3807119,9.5 14.5,8.38071187 14.5,7 C14.5,5.61928813 13.3807119,4.5 12,4.5 C10.6192881,4.5 9.5,5.61928813 9.5,7 C9.5,8.38071187 10.6192881,9.5 12,9.5 Z M7,13 L0,17 L12,24 L24,17 L17,13" id="icon-/-location"></path>
            </g>
        </g>
    </g>
</svg>