<?xml version="1.0" encoding="UTF-8"?>
<svg width="24px" height="24px" viewBox="0 0 24 24" version="1.1" xmlns="http://www.w3.org/2000/svg" xmlns:xlink="http://www.w3.org/1999/xlink">
    <!-- Generator: sketchtool 52.2 (67145) - http://www.bohemiancoding.com/sketch -->
    <title>257FA80C-19CF-42E5-9AE3-FCBA008165CA</title>
    <desc>Created with sketchtool.</desc>
    <g id="Dashboard+Settings" stroke="none" stroke-width="1" fill="none" fill-rule="evenodd" stroke-linecap="round" stroke-linejoin="round">
        <g id="Account" transform="translate(-16.000000, -618.000000)" stroke="#FFFFFF">
            <g id="icon_settings_refer" transform="translate(16.000000, 618.000000)">
                <g transform="translate(1.000000, 0.000000)">
                    <path d="M2.46913604e-13,22.715519 C1.27358432,19.5493112 4.37347789,17.3138622 7.99527388,17.3138622 C11.6263744,17.3138622 14.7325608,19.5606097 16,22.7395108 C16.0272508,22.8078593 -0.0246634218,22.7768338 2.46913604e-13,22.715519 Z" id="Stroke-19"></path>
                    <path d="M11.9336275,10.8596318 C11.9336275,12.9924971 10.206015,14.7192636 8.07399568,14.7192636 C5.94197637,14.7192636 4.21351786,12.9924971 4.21351786,10.8596318 C4.21351786,8.72761247 5.94197637,7 8.07399568,7 C10.206015,7 11.9336275,8.72761247 11.9336275,10.8596318 Z" id="Stroke-25"></path>
                    <path d="M18.5,0.5 L18.5,8.5" id="Line-5" fill-rule="nonzero"></path>
                    <path d="M14.5,4.5 L22.5,4.5" id="Line-5" fill-rule="nonzero"></path>
                </g>
            </g>
        </g>
    </g>
</svg>