<?xml version="1.0" encoding="UTF-8"?>
<svg width="30px" height="24px" viewBox="0 0 30 24" version="1.1" xmlns="http://www.w3.org/2000/svg" xmlns:xlink="http://www.w3.org/1999/xlink">
    <!-- Generator: sketchtool 52.2 (67145) - http://www.bohemiancoding.com/sketch -->
    <title>C34FCB1A-80B5-45F3-B52A-32269C8E64D7</title>
    <desc>Created with sketchtool.</desc>
    <defs>
        <polygon id="path-1" points="0.4704 0.173044898 5.68408163 0.173044898 5.68408163 5.38643265 0.4704 5.38643265"></polygon>
    </defs>
    <g id="Dashboard+Settings" stroke="none" stroke-width="1" fill="none" fill-rule="evenodd">
        <g id="Account" transform="translate(-16.000000, -725.000000)">
            <g id="icon_settings_theo" transform="translate(16.000000, 725.000000)">
                <g transform="translate(0.000000, 0.000000)">
                    <path d="M10.2437388,0.10795102 C3.77941224,0.983216327 -0.767363265,6.95480816 0.107902041,13.4191347 C0.983657143,19.883951 6.95524898,24.4302367 13.4190857,23.5549714 C19.883902,22.6797061 24.4301878,16.7086041 23.5549224,10.2437878 C22.6796571,3.77897143 16.7080653,-0.767314286 10.2437388,0.10795102 M12.9351673,19.9794612 C8.44177959,20.5877878 4.29173878,17.4276245 3.68292245,12.9347265 C3.07459592,8.44231837 6.23475918,4.29178776 10.7281469,3.68346122 C15.2210449,3.0746449 19.3710857,6.23480816 19.979902,10.7281959 C20.5882286,15.2206041 17.4280653,19.3711347 12.9351673,19.9794612" id="Fill-1" fill="#FFFFFF"></path>
                    <g id="Group-5" transform="translate(24.000000, 18.275118)">
                        <mask id="mask-2" fill="white">
                            <use xlink:href="#path-1"></use>
                        </mask>
                        <g id="Clip-4"></g>
                        <path d="M5.68427755,2.77973878 C5.68427755,4.21973878 4.51709388,5.38643265 3.07709388,5.38643265 C1.63758367,5.38643265 0.4704,4.21973878 0.4704,2.77973878 C0.4704,1.34071837 1.63758367,0.173044898 3.07709388,0.173044898 C4.51709388,0.173044898 5.68427755,1.34071837 5.68427755,2.77973878" id="Fill-3" fill="#17988B" mask="url(#mask-2)"></path>
                    </g>
                </g>
            </g>
        </g>
    </g>
</svg>