<?xml version="1.0" encoding="UTF-8"?>
<svg width="16px" height="16px" viewBox="0 0 16 16" version="1.1" xmlns="http://www.w3.org/2000/svg" xmlns:xlink="http://www.w3.org/1999/xlink">
    <!-- Generator: sketchtool 52.2 (67145) - http://www.bohemiancoding.com/sketch -->
    <title>1CCF69E7-8CE9-4803-ACD5-331E893C213F</title>
    <desc>Created with sketchtool.</desc>
    <g id="Accident-Log" stroke="none" stroke-width="1" fill="none" fill-rule="evenodd" stroke-linecap="round" stroke-linejoin="round">
        <g id="Confirmed-Incident---Camera" transform="translate(-343.000000, -35.000000)" fill="#FFFFFF" fill-rule="nonzero">
            <g id="icon-/-nav-/-close" transform="translate(343.000000, 35.000000)">
                <path d="M8,7.13110598 L14.9511521,0.179953843 C15.1910906,-0.0599846144 15.5801077,-0.0599846144 15.8200462,0.179953843 C16.0599846,0.419892301 16.0599846,0.808909403 15.8200462,1.04884786 L8.86889402,8 L15.8200462,14.9511521 C16.0599846,15.1910906 16.0599846,15.5801077 15.8200462,15.8200462 C15.5801077,16.0599846 15.1910906,16.0599846 14.9511521,15.8200462 L8,8.86889402 L1.04884786,15.8200462 C0.808909403,16.0599846 0.419892301,16.0599846 0.179953843,15.8200462 C-0.0599846144,15.5801077 -0.0599846144,15.1910906 0.179953843,14.9511521 L7.13110598,8 L0.179953843,1.04884786 C-0.0599846144,0.808909403 -0.0599846144,0.419892301 0.179953843,0.179953843 C0.419892301,-0.0599846144 0.808909403,-0.0599846144 1.04884786,0.179953843 L8,7.13110598 Z"></path>
            </g>
        </g>
    </g>
</svg>